<svg width="24" height="25" viewBox="0 0 24 25" fill="none" xmlns="http://www.w3.org/2000/svg">
    <path fill-rule="evenodd" clip-rule="evenodd" d="M12 21.8018C17.3848 21.8018 21.75 17.4365 21.75 12.0518C21.75 6.66698 17.3848 2.30176 12 2.30176C6.61522 2.30176 2.25 6.66698 2.25 12.0518C2.25 17.4365 6.61522 21.8018 12 21.8018ZM12 24.0518C18.6274 24.0518 24 18.6792 24 12.0518C24 5.42434 18.6274 0.0517578 12 0.0517578C5.37258 0.0517578 0 5.42434 0 12.0518C0 18.6792 5.37258 24.0518 12 24.0518Z" fill="#DEDEDE"/>
    <path d="M22.8354 13.0476C23.4508 13.1042 24.001 12.6506 24 12.0326C23.998 10.7647 23.795 9.50279 23.3965 8.29424C22.881 6.73072 22.0493 5.29001 20.9532 4.06171C19.857 2.83341 18.5198 1.8438 17.0248 1.15444C15.8692 0.621581 14.6384 0.276932 13.3789 0.131245C12.765 0.0602325 12.252 0.555497 12.2384 1.17334C12.2249 1.79117 12.7165 2.29643 13.3288 2.38054C14.2811 2.51139 15.211 2.78249 16.0877 3.18672C17.3039 3.74752 18.3917 4.55257 19.2834 5.5518C20.1752 6.55103 20.8518 7.72307 21.2711 8.99499C21.5734 9.91183 21.7374 10.8664 21.7595 11.8275C21.7737 12.4453 22.22 12.991 22.8354 13.0476Z" fill="#656F77"/>
</svg>
